<?xml version="1.0" encoding="UTF-8" standalone="no"?>
<svg
   xmlns:dc="http://purl.org/dc/elements/1.1/"
   xmlns:cc="http://creativecommons.org/ns#"
   xmlns:rdf="http://www.w3.org/1999/02/22-rdf-syntax-ns#"
   xmlns:svg="http://www.w3.org/2000/svg"
   xmlns="http://www.w3.org/2000/svg"
   version="1.1"
   id="svg2"
   viewBox="0 0 289.21082 138.89999"
   height="39.200665mm"
   width="81.621719mm">
  <defs
     id="defs4" />
  <metadata
     id="metadata7">
    <rdf:RDF>
      <cc:Work
         rdf:about="">
        <dc:format>image/svg+xml</dc:format>
        <dc:type
           rdf:resource="http://purl.org/dc/dcmitype/StillImage" />
        <dc:title></dc:title>
      </cc:Work>
    </rdf:RDF>
  </metadata>
  <g
     transform="translate(-154.52308,-93.300719)"
     id="layer1" />
  <g
     transform="translate(-154.52308,-93.300719)"
     id="layer2">
    <path
       d="m 188.84471,228.69795 a 32.4063,32.4063 0 0 1 -28.75119,-20.96573 32.4063,32.4063 0 0 1 7.82292,-34.71302 32.4063,32.4063 0 0 1 34.9649,-6.60669"
       id="path4157"
       style="fill:none;stroke:#333333;stroke-width:7;stroke-linecap:round;stroke-linejoin:bevel;stroke-miterlimit:4;stroke-dasharray:none;stroke-opacity:1" />
    <path
       d="m 187.13365,164.28139 a 39.080631,39.080631 0 0 1 14.66873,-27.35705 39.080631,39.080631 0 0 1 29.98386,-8.03415"
       id="path4179"
       style="fill:none;stroke:#333333;stroke-width:7;stroke-linecap:round;stroke-linejoin:bevel;stroke-miterlimit:4;stroke-dasharray:none;stroke-opacity:1" />
    <path
       d="m 372.71203,166.56806 a 32,32 0 0 1 30.79753,-6.91229 32,32 0 0 1 21.747,22.87653"
       id="path4181"
       style="fill:none;stroke:#333333;stroke-width:7;stroke-linecap:round;stroke-linejoin:bevel;stroke-miterlimit:4;stroke-dasharray:none;stroke-opacity:1" />
    <path
       d="m 295.65159,102.61941 a 71.96624,71.96624 0 0 1 62.96547,3.05199 71.96624,71.96624 0 0 1 36.40534,51.46471"
       id="path4183"
       style="fill:none;stroke:#333333;stroke-width:7;stroke-linecap:round;stroke-linejoin:bevel;stroke-miterlimit:4;stroke-dasharray:none;stroke-opacity:1" />
    <path
       d="m 396.61394,197.95578 a 22.745148,22.745148 0 0 1 24.21023,-13.46602 22.745148,22.745148 0 0 1 19.26167,19.91124 22.745148,22.745148 0 0 1 -14.26131,23.75045"
       id="path4187"
       style="fill:none;stroke:#333333;stroke-width:7;stroke-linecap:round;stroke-linejoin:bevel;stroke-miterlimit:4;stroke-dasharray:none;stroke-opacity:1" />
    <path
       id="path4161"
       d="m 187.45939,228.68363 66.0171,0"
       style="fill:none;fill-rule:evenodd;stroke:#333333;stroke-width:6.87828207;stroke-linecap:round;stroke-linejoin:bevel;stroke-miterlimit:4;stroke-dasharray:none;stroke-opacity:1" />
    <path
       d="m 253.62743,228.25513 a 67.379707,67.379707 0 0 1 -33.28212,-44.69208 67.379707,67.379707 0 0 1 11.75194,-54.46992"
       id="path4343"
       style="fill:none;fill-opacity:1;stroke:#333333;stroke-width:7;stroke-linecap:round;stroke-linejoin:bevel;stroke-miterlimit:4;stroke-dasharray:none;stroke-opacity:1" />
    <path
       d="m 295.82913,102.83258 a 67.379707,67.379707 0 0 1 56.93985,53.05083 67.379707,67.379707 0 0 1 -31.06329,71.35552"
       id="path4343-3"
       style="fill:none;fill-opacity:1;stroke:#333333;stroke-width:7;stroke-linecap:round;stroke-linejoin:bevel;stroke-miterlimit:4;stroke-dasharray:none;stroke-opacity:1" />
    <path
       id="path4161-6"
       d="m 321.87084,228.02917 103.24219,0"
       style="fill:none;fill-rule:evenodd;stroke:#333333;stroke-width:6.98502064;stroke-linecap:round;stroke-linejoin:bevel;stroke-miterlimit:4;stroke-dasharray:none;stroke-opacity:1" />
  </g>
  <g
     transform="translate(-154.52308,-93.300719)"
     style="display:inline"
     id="layer3">
    <g
       transform="matrix(0.83422158,0,0,0.83422158,47.39901,26.908225)"
       id="g4963">
      <path
         style="display:inline;fill:none;fill-opacity:1;fill-rule:evenodd;stroke:#ff6600;stroke-width:10;stroke-linecap:round;stroke-linejoin:miter;stroke-miterlimit:4;stroke-dasharray:none;stroke-opacity:1"
         d="m 316.26316,202.85733 10.78337,10.78337"
         id="path4368-5-3-6" />
      <path
         style="display:inline;fill:none;fill-opacity:1;fill-rule:evenodd;stroke:#ff6600;stroke-width:10;stroke-linecap:round;stroke-linejoin:miter;stroke-miterlimit:4;stroke-dasharray:none;stroke-opacity:1"
         d="m 244.97062,123.871 10.78337,10.78337"
         id="path4368-5-3-5-2" />
      <g
         id="g4946"
         style="fill:#ff6600"
         transform="matrix(1.0051713,0,0,0.96852249,-1.2425028,7.2043048)">
        <circle
           r="30.981956"
           cy="168.75584"
           cx="286.00858"
           id="path4362"
           style="fill:#ff6600;fill-opacity:1;stroke:none;stroke-width:16.57557106;stroke-linecap:round;stroke-linejoin:bevel;stroke-miterlimit:4;stroke-dasharray:none;stroke-opacity:1" />
        <g
           style="fill:#ff6600;stroke-width:10;stroke-miterlimit:4;stroke-dasharray:none"
           transform="translate(0,-1.519205)"
           id="g4790">
          <path
             style="display:inline;fill:#ff6600;fill-opacity:1;fill-rule:evenodd;stroke:#ff6600;stroke-width:10;stroke-linecap:round;stroke-linejoin:miter;stroke-miterlimit:4;stroke-dasharray:none;stroke-opacity:1"
             d="m 329.56406,169.77329 15.24999,0"
             id="path4368-5-3" />
          <path
             style="display:inline;fill:#ff6600;fill-opacity:1;fill-rule:evenodd;stroke:#ff6600;stroke-width:10;stroke-linecap:round;stroke-linejoin:miter;stroke-miterlimit:4;stroke-dasharray:none;stroke-opacity:1"
             d="m 227.2031,170.77682 15.24999,0"
             id="path4368-5-3-5" />
        </g>
        <g
           style="fill:#ff6600;stroke-width:10;stroke-miterlimit:4;stroke-dasharray:none"
           transform="translate(1.286005,0.351825)"
           id="g4798">
          <path
             style="display:inline;fill:#ff6600;fill-opacity:1;fill-rule:evenodd;stroke:#ff6600;stroke-width:10;stroke-linecap:round;stroke-linejoin:miter;stroke-miterlimit:4;stroke-dasharray:none;stroke-opacity:1"
             d="m 252.46091,199.16038 -10.78337,10.78337"
             id="path4368-5-3-6-9" />
          <path
             style="display:inline;fill:#ff6600;fill-opacity:1;fill-rule:evenodd;stroke:#ff6600;stroke-width:10;stroke-linecap:round;stroke-linejoin:miter;stroke-miterlimit:4;stroke-dasharray:none;stroke-opacity:1"
             d="m 327.7676,126.8643 -10.78337,10.78337"
             id="path4368-5-3-5-2-1" />
        </g>
        <g
           style="fill:#ff6600;stroke-width:10;stroke-miterlimit:4;stroke-dasharray:none"
           transform="translate(2.249475,0)"
           id="g4802">
          <path
             style="display:inline;fill:#ff6600;fill-opacity:1;fill-rule:evenodd;stroke:#ff6600;stroke-width:10;stroke-linecap:round;stroke-linejoin:miter;stroke-miterlimit:4;stroke-dasharray:none;stroke-opacity:1"
             d="m 283.7591,211.47506 0,15.24999"
             id="path4368-5-3-0" />
          <path
             style="display:inline;fill:#ff6600;fill-opacity:1;fill-rule:evenodd;stroke:#ff6600;stroke-width:10;stroke-linecap:round;stroke-linejoin:miter;stroke-miterlimit:4;stroke-dasharray:none;stroke-opacity:1"
             d="m 283.7591,110.78665 0,15.24999"
             id="path4368-5-3-5-9" />
        </g>
      </g>
    </g>
  </g>
</svg>
