<?xml version="1.0" encoding="UTF-8" standalone="no"?>
<svg
   xmlns:dc="http://purl.org/dc/elements/1.1/"
   xmlns:cc="http://creativecommons.org/ns#"
   xmlns:rdf="http://www.w3.org/1999/02/22-rdf-syntax-ns#"
   xmlns:svg="http://www.w3.org/2000/svg"
   xmlns="http://www.w3.org/2000/svg"
   version="1.1"
   id="svg2"
   viewBox="0 0 599.78166 171.90131"
   height="48.51437mm"
   width="169.27171mm">
  <defs
     id="defs4" />
  <metadata
     id="metadata7">
    <rdf:RDF>
      <cc:Work
         rdf:about="">
        <dc:format>image/svg+xml</dc:format>
        <dc:type
           rdf:resource="http://purl.org/dc/dcmitype/StillImage" />
        <dc:title></dc:title>
      </cc:Work>
    </rdf:RDF>
  </metadata>
  <g
     transform="translate(-136.83728,-79.308426)"
     id="layer1" />
  <g
     transform="translate(-136.83728,-79.308426)"
     id="layer2">
    <path
       d="m 188.84471,228.69795 a 32.4063,32.4063 0 0 1 -28.75119,-20.96573 32.4063,32.4063 0 0 1 7.82292,-34.71302 32.4063,32.4063 0 0 1 34.9649,-6.60669"
       id="path4157"
       style="fill:none;stroke:#333333;stroke-width:7;stroke-linecap:round;stroke-linejoin:bevel;stroke-miterlimit:4;stroke-dasharray:none;stroke-opacity:1" />
    <path
       d="m 187.13365,164.28139 a 39.080631,39.080631 0 0 1 14.66873,-27.35705 39.080631,39.080631 0 0 1 29.98386,-8.03415"
       id="path4179"
       style="fill:none;stroke:#333333;stroke-width:7;stroke-linecap:round;stroke-linejoin:bevel;stroke-miterlimit:4;stroke-dasharray:none;stroke-opacity:1" />
    <path
       d="m 372.71203,166.56806 a 32,32 0 0 1 30.79753,-6.91229 32,32 0 0 1 21.747,22.87653"
       id="path4181"
       style="fill:none;stroke:#333333;stroke-width:7;stroke-linecap:round;stroke-linejoin:bevel;stroke-miterlimit:4;stroke-dasharray:none;stroke-opacity:1" />
    <path
       d="m 295.65159,102.61941 a 71.96624,71.96624 0 0 1 62.96547,3.05199 71.96624,71.96624 0 0 1 36.40534,51.46471"
       id="path4183"
       style="fill:none;stroke:#333333;stroke-width:7;stroke-linecap:round;stroke-linejoin:bevel;stroke-miterlimit:4;stroke-dasharray:none;stroke-opacity:1" />
    <path
       d="m 396.61394,197.95578 a 22.745148,22.745148 0 0 1 24.21023,-13.46602 22.745148,22.745148 0 0 1 19.26167,19.91124 22.745148,22.745148 0 0 1 -14.26131,23.75045"
       id="path4187"
       style="fill:none;stroke:#333333;stroke-width:7;stroke-linecap:round;stroke-linejoin:bevel;stroke-miterlimit:4;stroke-dasharray:none;stroke-opacity:1" />
    <path
       id="path4161"
       d="m 187.45939,228.68363 66.0171,0"
       style="fill:none;fill-rule:evenodd;stroke:#333333;stroke-width:6.87828207;stroke-linecap:round;stroke-linejoin:bevel;stroke-miterlimit:4;stroke-dasharray:none;stroke-opacity:1" />
    <path
       d="m 253.62743,228.25513 a 67.379707,67.379707 0 0 1 -33.28212,-44.69208 67.379707,67.379707 0 0 1 11.75194,-54.46992"
       id="path4343"
       style="fill:none;fill-opacity:1;stroke:#333333;stroke-width:7;stroke-linecap:round;stroke-linejoin:bevel;stroke-miterlimit:4;stroke-dasharray:none;stroke-opacity:1" />
    <g
       id="flowRoot4902"
       style="font-style:normal;font-weight:normal;font-size:40px;line-height:125%;font-family:sans-serif;letter-spacing:0px;word-spacing:0px;fill:#ff6600;fill-opacity:1;stroke:none;stroke-width:1px;stroke-linecap:butt;stroke-linejoin:miter;stroke-opacity:1"
       transform="matrix(2.2853919,0,0,2.2853919,43.755725,-418.83498)">
      <path
         id="path4164"
         style="fill:#333333;fill-opacity:1"
         d="m 183.9375,271.24349 2.63672,-2.96875 7.71484,-7.67578 4.33594,0 -9.64844,9.27734 10.19531,12.16797 -4.16015,0 -8.32031,-9.84375 -2.51954,1.60156 0,8.24219 -3.51562,0 0,-30.39062 3.51562,0 0,13.94531 -0.3125,5.64453 0.0781,0 z" />
      <path
         id="path4166"
         style="fill:#333333;fill-opacity:1"
         d="m 217.76562,282.04427 0,-13.80859 q 0,-5.07813 -4.64843,-5.07813 -5.9961,0 -5.9961,7.77344 l 0,11.11328 -3.55468,0 0,-21.44531 2.87109,0 0.52734,2.89062 0.19532,0 q 2.01171,-3.28125 6.5625,-3.28125 7.59765,0 7.59765,7.83203 l 0,14.00391 -3.55469,0 z" />
      <path
         id="path4168"
         style="fill:#333333;fill-opacity:1"
         d="m 245.83203,272.00521 -15.11719,0 q 0.15625,7.32422 6.71875,7.32422 3.8086,0 7.22657,-1.48438 l 0,3.125 q -3.24219,1.46485 -7.10938,1.46485 -4.78516,0 -7.65625,-2.91016 -2.87109,-2.92969 -2.87109,-8.04688 0,-5.19531 2.63672,-8.22265 2.65625,-3.04688 7.08984,-3.04688 4.14062,0 6.60156,2.61719 2.48047,2.61719 2.48047,6.97266 l 0,2.20703 z m -15.03906,-2.89063 11.1914,0 q 0,-5.95703 -5.3125,-5.95703 -5.37109,0 -5.8789,5.95703 z" />
      <path
         id="path4170"
         style="fill:#333333;fill-opacity:1"
         d="m 258.37109,271.04818 -7.67578,-10.44922 4.04297,0 5.66406,8.00781 5.6836,-8.00781 4.04297,0 -7.71485,10.44922 8.06641,10.99609 -4.02344,0 -6.05469,-8.51562 -6.07422,8.51562 -4.04296,0 8.08593,-10.99609 z" />
      <path
         id="path4172"
         style="font-style:normal;font-variant:normal;font-weight:normal;font-stretch:normal;font-family:'Noto Mono';-inkscape-font-specification:'Noto Mono';fill:#ff6600;fill-opacity:1"
         d="m 284.38672,276.16536 q 2.96875,0 2.96875,3.24219 0,3.24219 -2.96875,3.24219 -2.94922,0 -2.94922,-3.24219 0,-3.24219 2.94922,-3.24219 z" />
    </g>
    <path
       d="m 295.82913,102.83258 a 67.379707,67.379707 0 0 1 56.93985,53.05083 67.379707,67.379707 0 0 1 -31.06329,71.35552"
       id="path4343-3"
       style="fill:none;fill-opacity:1;stroke:#333333;stroke-width:7;stroke-linecap:round;stroke-linejoin:bevel;stroke-miterlimit:4;stroke-dasharray:none;stroke-opacity:1" />
    <path
       id="path4161-6"
       d="m 321.87084,228.02917 103.24219,0"
       style="fill:none;fill-rule:evenodd;stroke:#333333;stroke-width:6.98502064;stroke-linecap:round;stroke-linejoin:bevel;stroke-miterlimit:4;stroke-dasharray:none;stroke-opacity:1" />
  </g>
  <g
     transform="translate(-136.83728,-79.308426)"
     style="display:inline"
     id="layer3">
    <g
       transform="matrix(0.83422158,0,0,0.83422158,47.39901,26.908225)"
       id="g4963">
      <path
         style="display:inline;fill:none;fill-opacity:1;fill-rule:evenodd;stroke:#ff6600;stroke-width:10;stroke-linecap:round;stroke-linejoin:miter;stroke-miterlimit:4;stroke-dasharray:none;stroke-opacity:1"
         d="m 316.26316,202.85733 10.78337,10.78337"
         id="path4368-5-3-6" />
      <path
         style="display:inline;fill:none;fill-opacity:1;fill-rule:evenodd;stroke:#ff6600;stroke-width:10;stroke-linecap:round;stroke-linejoin:miter;stroke-miterlimit:4;stroke-dasharray:none;stroke-opacity:1"
         d="m 244.97062,123.871 10.78337,10.78337"
         id="path4368-5-3-5-2" />
      <g
         id="g4946"
         style="fill:#ff6600"
         transform="matrix(1.0051713,0,0,0.96852249,-1.2425028,7.2043048)">
        <circle
           r="30.981956"
           cy="168.75584"
           cx="286.00858"
           id="path4362"
           style="fill:#ff6600;fill-opacity:1;stroke:none;stroke-width:16.57557106;stroke-linecap:round;stroke-linejoin:bevel;stroke-miterlimit:4;stroke-dasharray:none;stroke-opacity:1" />
        <g
           style="fill:#ff6600;stroke-width:10;stroke-miterlimit:4;stroke-dasharray:none"
           transform="translate(0,-1.519205)"
           id="g4790">
          <path
             style="display:inline;fill:#ff6600;fill-opacity:1;fill-rule:evenodd;stroke:#ff6600;stroke-width:10;stroke-linecap:round;stroke-linejoin:miter;stroke-miterlimit:4;stroke-dasharray:none;stroke-opacity:1"
             d="m 329.56406,169.77329 15.24999,0"
             id="path4368-5-3" />
          <path
             style="display:inline;fill:#ff6600;fill-opacity:1;fill-rule:evenodd;stroke:#ff6600;stroke-width:10;stroke-linecap:round;stroke-linejoin:miter;stroke-miterlimit:4;stroke-dasharray:none;stroke-opacity:1"
             d="m 227.2031,170.77682 15.24999,0"
             id="path4368-5-3-5" />
        </g>
        <g
           style="fill:#ff6600;stroke-width:10;stroke-miterlimit:4;stroke-dasharray:none"
           transform="translate(1.286005,0.351825)"
           id="g4798">
          <path
             style="display:inline;fill:#ff6600;fill-opacity:1;fill-rule:evenodd;stroke:#ff6600;stroke-width:10;stroke-linecap:round;stroke-linejoin:miter;stroke-miterlimit:4;stroke-dasharray:none;stroke-opacity:1"
             d="m 252.46091,199.16038 -10.78337,10.78337"
             id="path4368-5-3-6-9" />
          <path
             style="display:inline;fill:#ff6600;fill-opacity:1;fill-rule:evenodd;stroke:#ff6600;stroke-width:10;stroke-linecap:round;stroke-linejoin:miter;stroke-miterlimit:4;stroke-dasharray:none;stroke-opacity:1"
             d="m 327.7676,126.8643 -10.78337,10.78337"
             id="path4368-5-3-5-2-1" />
        </g>
        <g
           style="fill:#ff6600;stroke-width:10;stroke-miterlimit:4;stroke-dasharray:none"
           transform="translate(2.249475,0)"
           id="g4802">
          <path
             style="display:inline;fill:#ff6600;fill-opacity:1;fill-rule:evenodd;stroke:#ff6600;stroke-width:10;stroke-linecap:round;stroke-linejoin:miter;stroke-miterlimit:4;stroke-dasharray:none;stroke-opacity:1"
             d="m 283.7591,211.47506 0,15.24999"
             id="path4368-5-3-0" />
          <path
             style="display:inline;fill:#ff6600;fill-opacity:1;fill-rule:evenodd;stroke:#ff6600;stroke-width:10;stroke-linecap:round;stroke-linejoin:miter;stroke-miterlimit:4;stroke-dasharray:none;stroke-opacity:1"
             d="m 283.7591,110.78665 0,15.24999"
             id="path4368-5-3-5-9" />
        </g>
      </g>
    </g>
  </g>
</svg>
